<svg width="19" height="25" viewBox="0 0 19 25" fill="none" xmlns="http://www.w3.org/2000/svg">
<path d="M9.49995 12.2266C12.2773 12.2266 14.5291 9.48964 14.5291 6.11336C14.5291 2.737 13.7898 0 9.49995 0C5.21012 0 4.4707 2.737 4.4707 6.11336C4.4707 9.48964 6.72243 12.2266 9.49995 12.2266Z" fill="white"/>
<path d="M0.000990391 21.5609C0.000132687 21.3551 -0.000725016 21.5029 0.000990391 21.5609V21.5609Z" fill="white"/>
<path d="M18.9985 21.7217C19.0012 21.6654 18.9995 21.3307 18.9985 21.7217V21.7217Z" fill="white"/>
<path d="M18.9879 21.314C18.8948 15.4325 18.1272 13.7565 12.2538 12.6957C12.2538 12.6957 11.427 13.75 9.49998 13.75C7.57293 13.75 6.74601 12.6957 6.74601 12.6957C0.936666 13.745 0.122452 15.396 0.0153937 21.123C0.00661494 21.5906 0.00254675 21.6152 0.000976562 21.5609C0.00133342 21.6626 0.0017615 21.8507 0.0017615 22.1788C0.0017615 22.1788 1.40009 25 9.49998 25C17.5997 25 18.9982 22.1788 18.9982 22.1788C18.9982 21.968 18.9983 21.8215 18.9985 21.7217C18.997 21.7553 18.9938 21.6902 18.9879 21.314Z" fill="white"/>
</svg>
