<svg width="25" height="23" viewBox="0 0 25 23" fill="none" xmlns="http://www.w3.org/2000/svg">
<path d="M16.2692 4.71731C14.8578 1.8775 11.9055 0 8.59392 0C3.85541 0 0.000376282 3.77728 0.000376282 8.42016C0.000376282 9.68193 0.275272 10.8913 0.817838 12.0189L0.0145849 15.9771C-0.0876588 16.4809 0.363405 16.9263 0.874819 16.8266L4.94108 16.0344C5.48858 16.2903 6.05497 16.4849 6.63694 16.619C5.33243 10.5305 10.0157 4.81537 16.2692 4.71731V4.71731Z" fill="white"/>
<path d="M24.1824 18.1776C24.3227 17.886 24.4447 17.5888 24.5491 17.2868H24.5223C26.3508 11.9981 22.5055 6.43969 16.8288 6.16904C16.8287 6.16875 16.8286 6.16846 16.8286 6.16818C11.9441 5.94636 7.88599 9.8002 7.88599 14.5789C7.88599 19.2179 11.7121 22.9922 16.4182 22.9989C17.6946 22.9972 18.9181 22.7264 20.0591 22.1931C24.5125 23.0607 24.1651 22.9991 24.2674 22.9991C24.7303 22.9991 25.076 22.5811 24.9856 22.1358L24.1824 18.1776Z" fill="white"/>
</svg>
