<svg width="23" height="25" viewBox="0 0 23 25" fill="none" xmlns="http://www.w3.org/2000/svg">
<path d="M6.17187 6.31374C5.74193 6.31374 5.39343 5.96329 5.39343 5.53095V0.78279C5.39343 0.350445 5.74193 0 6.17187 0C6.6018 0 6.9503 0.350445 6.9503 0.78279V5.53095C6.9503 5.96329 6.6018 6.31374 6.17187 6.31374Z" fill="white"/>
<path d="M16.3281 6.31374C15.8982 6.31374 15.5497 5.96329 15.5497 5.53095V0.78279C15.5497 0.350445 15.8982 0 16.3281 0C16.7581 0 17.1066 0.350445 17.1066 0.78279V5.53095C17.1066 5.96329 16.7581 6.31374 16.3281 6.31374Z" fill="white"/>
<path d="M0 10.86V21.6609C0 23.5021 1.48958 25 3.32055 25H19.1794C21.0104 25 22.5 23.5021 22.5 21.6609V10.86H0Z" fill="white"/>
<path d="M22.4999 9.29438V5.71321C22.4999 3.87199 21.0103 2.37407 19.1794 2.37407H18.6634V5.53092C18.6634 6.82585 17.6158 7.87929 16.3281 7.87929C15.0403 7.87929 13.9928 6.82585 13.9928 5.53092V2.37402H8.5072V5.53087C8.5072 6.8258 7.45962 7.87924 6.1719 7.87924C4.88418 7.87924 3.8366 6.8258 3.8366 5.53087V2.37402H3.32055C1.48958 2.37402 0 3.87194 0 5.71316V9.29433H22.4999V9.29438Z" fill="white"/>
</svg>
