<svg width="25" height="22" viewBox="0 0 25 22" fill="none" xmlns="http://www.w3.org/2000/svg">
<path d="M15.0864 3.61101C16.2424 4.33577 17.0529 5.56221 17.2005 6.98584C17.6719 7.2061 18.1951 7.33277 18.7498 7.33277C20.775 7.33277 22.4164 5.69138 22.4164 3.66654C22.4164 1.6414 20.775 0 18.7498 0C16.744 0.000623986 15.117 1.61269 15.0864 3.61101ZM12.6844 11.1182C14.7095 11.1182 16.3509 9.47648 16.3509 7.45164C16.3509 5.42681 14.7092 3.78541 12.6844 3.78541C10.6596 3.78541 9.01722 5.42712 9.01722 7.45195C9.01722 9.47679 10.6596 11.1182 12.6844 11.1182ZM14.2397 11.3681H11.1285C8.53987 11.3681 6.43392 13.4744 6.43392 16.063V19.8677L6.44359 19.9273L6.70567 20.0094C9.17603 20.7812 11.3222 21.0386 13.0887 21.0386C16.5391 21.0386 18.5389 20.0549 18.6622 19.9922L18.9071 19.8683H18.9333V16.063C18.9342 13.4744 16.8283 11.3681 14.2397 11.3681ZM20.3058 7.58299H17.2186C17.1852 8.81817 16.6579 9.93043 15.824 10.7304C18.1249 11.4146 19.8084 13.5483 19.8084 16.0686V17.241C22.8566 17.1294 24.6131 16.2654 24.7289 16.2074L24.9738 16.0832H25V12.2772C25 9.68894 22.894 7.58299 20.3058 7.58299ZM6.25078 7.3334C6.96805 7.3334 7.63541 7.12405 8.20074 6.76744C8.38044 5.59528 9.0088 4.57101 9.9064 3.87339C9.91015 3.80476 9.9167 3.73674 9.9167 3.66748C9.9167 1.64233 8.27499 0.000935911 6.25078 0.000935911C4.22532 0.000935911 2.58424 1.64233 2.58424 3.66748C2.58424 5.69169 4.22532 7.3334 6.25078 7.3334ZM9.54356 10.7304C8.71365 9.93448 8.18826 8.82815 8.14988 7.60046C8.03538 7.59204 7.92213 7.58299 7.80544 7.58299H4.69456C2.10595 7.58299 0 9.68894 0 12.2772V16.0826L0.00967178 16.1413L0.271746 16.2239C2.25353 16.8426 4.02221 17.1278 5.55847 17.2176V16.0686C5.55909 13.5483 7.24198 11.4152 9.54356 10.7304Z" fill="white"/>
</svg>
