<svg width="25" height="24" viewBox="0 0 25 24" fill="none" xmlns="http://www.w3.org/2000/svg">
<path d="M13.69 9.12324C13.8394 9.12324 13.9834 9.14729 14.1222 9.18738L16.7102 6.01C16.8757 5.80691 17.1825 5.7695 17.3826 5.94052C17.5774 6.10354 17.604 6.39482 17.4413 6.59257L14.8826 9.7352C15.056 9.97571 15.1601 10.2724 15.1601 10.593C15.1601 11.189 14.8026 11.7047 14.2929 11.9345H24.333C24.7012 11.9345 25 11.6352 25 11.2664V2.80858C25 2.4398 24.7012 2.1405 24.333 2.1405H11.5795C11.2113 2.1405 10.9125 2.4398 10.9125 2.80858V8.36164L11.5155 9.12592H13.69V9.12324Z" fill="white"/>
<path d="M5.3708 5.47288C6.87971 5.47288 8.10292 4.24774 8.10292 2.73644C8.10292 1.22515 6.87971 0 5.3708 0C3.86189 0 2.63867 1.22515 2.63867 2.73644C2.63867 4.24774 3.86189 5.47288 5.3708 5.47288Z" fill="white"/>
<path d="M8.17236 23.3319C8.17236 23.7007 7.87353 23.9999 7.50534 23.9999H6.38474C6.01654 23.9999 5.71772 23.7007 5.71772 23.3319V17.7307C5.71772 17.533 5.55763 17.3726 5.36019 17.3726C5.16275 17.3726 5.00267 17.533 5.00267 17.7307V23.3051C5.00267 23.6873 4.6905 23.9999 4.30896 23.9999H3.21238C2.84418 23.9999 2.54536 23.7007 2.54536 23.3319L2.54002 9.81C2.54002 9.62828 2.39328 9.47866 2.20918 9.47866C2.02775 9.47866 1.87834 9.62564 1.87834 9.81V15.0103C1.87834 15.3791 1.57951 15.6784 1.21131 15.6784H0.667022C0.298826 15.6784 0 15.3791 0 15.0103V7.8806C0 7.03348 0.685699 6.34937 1.52882 6.34937H7.60406C8.25504 6.34937 8.8714 6.64866 9.27695 7.15907L10.9098 9.22209L11.254 9.65768C11.254 9.65768 12.8015 9.65768 13.6926 9.66035C14.0608 9.66035 14.3596 9.95965 14.3596 10.3284V10.8602C14.3596 11.229 14.0608 11.5283 13.6926 11.5283H10.8058C10.5203 11.5283 10.2508 11.3974 10.0747 11.1729L8.85806 9.60688C8.79669 9.52671 8.69797 9.47861 8.59659 9.47861H8.51387C8.33244 9.47861 8.18306 9.62559 8.18306 9.80995L8.17236 23.3319Z" fill="white"/>
</svg>
