<svg width="25" height="19" viewBox="0 0 25 19" fill="none" xmlns="http://www.w3.org/2000/svg">
<path d="M24.7339 11.4171L22.4461 1.65562C22.2836 1.01008 21.8407 0.479675 21.2318 0.201736C20.6229 -0.0776588 19.9302 -0.066258 19.3306 0.2323L18.034 0.876377C17.6719 1.05627 17.5253 1.49348 17.7063 1.85321C17.8881 2.21295 18.328 2.35655 18.6894 2.17884L19.986 1.53477C20.1849 1.43667 20.4161 1.4324 20.62 1.52409C20.8232 1.61724 20.9706 1.79422 21.0221 1.99759L22.9636 10.2815C22.9094 10.2775 22.8573 10.2638 22.8024 10.2638H15.3865C14.7254 10.2638 14.1057 10.5552 13.6864 11.0636C13.4993 11.29 13.3713 11.5497 13.2889 11.822C12.7682 11.7078 12.2319 11.7078 11.7112 11.822C11.6288 11.5497 11.5007 11.29 11.3137 11.0636C10.8944 10.5552 10.2747 10.2638 9.61355 10.2638H2.1976C2.14272 10.2638 2.09052 10.2775 2.03637 10.2815L3.97504 2.00962C4.02938 1.79422 4.17685 1.61719 4.38002 1.52404C4.58397 1.43162 4.81366 1.43589 5.014 1.53472L6.31058 2.17879C6.67264 2.35655 7.112 2.2129 7.29373 1.85317C7.47479 1.49343 7.32806 1.05617 6.966 0.876328L5.66947 0.232251C5.07054 -0.0648996 4.37719 -0.0763007 3.76825 0.201687C3.15932 0.479626 2.71635 1.01008 2.55107 1.6677L0.265964 11.4172C0.0255349 11.8605 -0.0596212 12.3724 0.0423317 12.8766L0.685592 16.0737C1.0269 17.7693 2.53813 19 4.27836 19H7.53265C9.27283 19 10.7841 17.7694 11.1254 16.0737L11.6722 13.3561C12.2055 13.1394 12.7944 13.1394 13.3278 13.3561L13.8746 16.0737C14.2159 17.7693 15.7271 19 17.4673 19H20.7216C22.4618 19 23.9731 17.7694 24.3144 16.0737L24.9577 12.8766C25.0596 12.3723 24.9745 11.8603 24.7339 11.4171Z" fill="white"/>
</svg>
