<svg width="25" height="25" viewBox="0 0 25 25" fill="none" xmlns="http://www.w3.org/2000/svg">
<path d="M12.5 0C5.60722 0 0 5.60722 0 12.5C0 19.3928 5.60722 25 12.5 25C19.3928 25 25 19.3928 25 12.5C25 5.60722 19.3928 0 12.5 0ZM12.5 19.7916C11.9249 19.7916 11.4584 19.3251 11.4584 18.75C11.4584 18.1749 11.9249 17.7084 12.5 17.7084C13.0751 17.7084 13.5416 18.1749 13.5416 18.75C13.5416 19.3251 13.0751 19.7916 12.5 19.7916V19.7916ZM14.1489 13.1687C13.7802 13.3385 13.5416 13.7104 13.5416 14.1157V14.5834C13.5416 15.1583 13.076 15.625 12.5 15.625C11.924 15.625 11.4584 15.1583 11.4584 14.5834V14.1157C11.4584 12.9 12.1729 11.7855 13.2761 11.2761C14.3375 10.7876 15.1041 9.49059 15.1041 8.8541C15.1041 7.41882 13.9364 6.25 12.5 6.25C11.0636 6.25 9.8959 7.41882 9.8959 8.8541C9.8959 9.42917 9.43012 9.8959 8.8541 9.8959C8.27808 9.8959 7.8125 9.42917 7.8125 8.8541C7.8125 6.26984 9.91554 4.1666 12.5 4.1666C15.0845 4.1666 17.1875 6.26984 17.1875 8.8541C17.1875 10.2615 15.9666 12.3302 14.1489 13.1687Z" fill="white"/>
</svg>
