<svg width="165" height="179" viewBox="0 0 165 179" fill="none" xmlns="http://www.w3.org/2000/svg">
<path d="M79.2714 178.629C96.9146 178.629 111.268 164.297 111.268 146.681C111.268 129.066 96.9146 114.734 79.2714 114.734C61.6294 114.734 47.2751 129.066 47.2751 146.681C47.2751 164.297 61.6298 178.629 79.2714 178.629Z" fill="#F8981D"/>
<path opacity="0.19" d="M54.1825 147.053C54.1825 130.561 66.7646 116.948 82.8457 115.278C81.7503 115.165 80.638 115.105 79.5127 115.105C61.8706 115.105 47.5164 129.437 47.5164 147.052C47.5164 164.668 61.8706 179 79.5127 179C80.6384 179 81.7503 178.94 82.8457 178.826C66.7642 177.158 54.1825 163.545 54.1825 147.053Z" fill="#202121"/>
<path d="M161.501 1.59893C160.71 0.611701 159.214 0 157.59 0H7.41064C5.78735 0 4.29023 0.611364 3.49921 1.59825C2.70916 2.58345 2.74896 3.79066 3.60258 4.75022L16.0473 18.7421C16.8044 19.593 18.103 20.1281 19.5254 20.2017C18.9843 21.1177 19.0945 22.1667 19.8549 23.022L32.3001 37.0138C33.1164 37.9309 34.5567 38.4893 36.1082 38.4893H128.843C130.392 38.4893 131.832 37.9319 132.649 37.0152L145.115 23.0237C145.853 22.1953 145.982 21.1838 145.496 20.2887C146.858 20.1915 148.107 19.6676 148.848 18.8352L161.395 4.75224C162.25 3.79133 162.291 2.58548 161.501 1.59893Z" fill="#6699CC"/>
<path opacity="0.19" d="M21.654 0H7.39023C5.77434 0 4.28405 0.611364 3.49663 1.59825C2.71018 2.58345 2.7498 3.79066 3.59953 4.75022L15.9875 18.7421C16.7411 19.593 18.0339 20.1281 19.4498 20.2017C18.9111 21.1177 19.0208 22.1667 19.7778 23.022L32.1663 37.0138C32.9788 37.9309 34.4126 38.4893 35.957 38.4893H55.7332L21.654 0Z" fill="#202121"/>
<path d="M13.2 17.0241L15.4767 19.2773C16.2404 20.0327 17.5503 20.5078 18.9851 20.5731C18.6356 21.0949 18.5587 21.6641 18.7482 22.2054H146.244C146.425 21.6907 146.362 21.1501 146.054 20.6498C147.429 20.5635 148.688 20.0984 149.436 19.3594L151.799 17.0241C151.799 17.0241 13.2 17.0241 13.2 17.0241Z" fill="#485D6D"/>
<path d="M161.736 0.23544C159.804 -0.149587 157.743 0.408839 156.686 1.60625L72.6644 96.6602C71.8052 97.6316 71.7653 98.8519 72.5592 99.8503C73.3517 100.848 74.8533 101.467 76.484 101.467H96.1655H97.0042H128.612L164.214 59.4675L165 58.5394V26.5924V23.2668V3.26446C164.999 1.85645 163.666 0.620468 161.736 0.23544Z" fill="#6699CC"/>
<path d="M82.6205 85.8233L8.31475 1.62042C7.25927 0.423699 5.19654 -0.137458 3.26482 0.247911C1.33311 0.632938 0.000488281 1.86926 0.000488281 3.27659V24.0834V27.0018V58.5444L34.7572 99.5457L36.3899 101.47H67.2676H68.1175H69.2164C70.7706 101.47 72.2162 100.907 73.0355 99.9795L82.619 89.139C83.5157 88.1225 83.5167 86.8401 82.6205 85.8233Z" fill="#6699CC"/>
<path opacity="0.19" d="M67.3617 101.404H68.223H69.3365C70.9114 101.404 72.3763 100.844 73.2065 99.9221L82.9178 89.1446C83.8264 88.1347 83.8274 86.8595 82.9193 85.8485L75.6062 77.7187L54.2666 101.404H67.3617Z" fill="#202121"/>
<path d="M164.999 30.237V26.5935V23.2679V19.2982C164.65 19.4992 164.339 19.7416 164.087 20.0269L92.4014 101.469H96.1659H97.0046H102.301L164.999 30.237Z" fill="#485D6D"/>
<path d="M0 21.2821V24.0814V26.9998V32.5288L60.681 101.468H67.2671H68.1171H69.2159C69.645 101.468 70.0644 101.421 70.4662 101.339L0 21.2821Z" fill="#485D6D"/>
<path d="M115.371 99.5784H49.6287C43.6938 99.5784 38.8665 103.179 38.8665 107.605V109.124C38.8665 113.55 43.6938 117.151 49.6287 117.151H115.371C121.305 117.151 126.133 113.55 126.133 109.124V107.605C126.133 103.179 121.306 99.5784 115.371 99.5784Z" fill="#485D6D"/>
<path d="M82.9014 154.585H80.7217V140.136L76.3506 141.741V139.773L82.5615 137.441H82.9014V154.585Z" fill="white"/>
</svg>
