<svg width="111" height="43" viewBox="0 0 111 43" fill="none" xmlns="http://www.w3.org/2000/svg">
<path d="M17.2119 8.98633H10.3564V28H7.55859V8.98633H0.717773V6.67188H17.2119V8.98633ZM32.4316 18.1416H23.1885V25.7002H33.9258V28H20.376V6.67188H33.7793V8.98633H23.1885V15.8418H32.4316V18.1416ZM41.4258 20.6611L39.7266 22.4336V28H37.0166V5.5H39.7266V19.1084L41.1768 17.3652L46.1133 12.1504H49.4092L43.2422 18.7715L50.127 28H46.9482L41.4258 20.6611ZM61.9922 28C61.8359 27.6875 61.709 27.1309 61.6113 26.3301C60.3516 27.6387 58.8477 28.293 57.0996 28.293C55.5371 28.293 54.2529 27.8535 53.2471 26.9746C52.251 26.0859 51.7529 24.9629 51.7529 23.6055C51.7529 21.9551 52.3779 20.6758 53.6279 19.7676C54.8877 18.8496 56.6553 18.3906 58.9307 18.3906H61.5674V17.1455C61.5674 16.1982 61.2842 15.4463 60.7178 14.8896C60.1514 14.3232 59.3164 14.04 58.2129 14.04C57.2461 14.04 56.4355 14.2842 55.7812 14.7725C55.127 15.2607 54.7998 15.8516 54.7998 16.5449H52.0752C52.0752 15.7539 52.3535 14.9922 52.9102 14.2598C53.4766 13.5176 54.2383 12.9316 55.1953 12.502C56.1621 12.0723 57.2217 11.8574 58.374 11.8574C60.2002 11.8574 61.6309 12.3164 62.666 13.2344C63.7012 14.1426 64.2383 15.3975 64.2773 16.999V24.2939C64.2773 25.749 64.4629 26.9062 64.834 27.7656V28H61.9922ZM57.4951 25.9346C58.3447 25.9346 59.1504 25.7148 59.9121 25.2754C60.6738 24.8359 61.2256 24.2646 61.5674 23.5615V20.3096H59.4434C56.123 20.3096 54.4629 21.2812 54.4629 23.2246C54.4629 24.0742 54.7461 24.7383 55.3125 25.2168C55.8789 25.6953 56.6064 25.9346 57.4951 25.9346ZM71.0742 12.1504L71.1475 13.9082C72.3096 12.541 73.877 11.8574 75.8496 11.8574C78.0664 11.8574 79.5752 12.707 80.376 14.4062C80.9033 13.6445 81.5869 13.0293 82.4268 12.5605C83.2764 12.0918 84.2773 11.8574 85.4297 11.8574C88.9062 11.8574 90.6738 13.6982 90.7324 17.3799V28H88.0225V17.541C88.0225 16.4082 87.7637 15.5635 87.2461 15.0068C86.7285 14.4404 85.8594 14.1572 84.6387 14.1572C83.6328 14.1572 82.7979 14.46 82.1338 15.0654C81.4697 15.6611 81.084 16.4668 80.9766 17.4824V28H78.252V17.6143C78.252 15.3096 77.124 14.1572 74.8682 14.1572C73.0908 14.1572 71.875 14.9141 71.2207 16.4277V28H68.5107V12.1504H71.0742ZM104.619 28C104.463 27.6875 104.336 27.1309 104.238 26.3301C102.979 27.6387 101.475 28.293 99.7266 28.293C98.1641 28.293 96.8799 27.8535 95.874 26.9746C94.8779 26.0859 94.3799 24.9629 94.3799 23.6055C94.3799 21.9551 95.0049 20.6758 96.2549 19.7676C97.5146 18.8496 99.2822 18.3906 101.558 18.3906H104.194V17.1455C104.194 16.1982 103.911 15.4463 103.345 14.8896C102.778 14.3232 101.943 14.04 100.84 14.04C99.873 14.04 99.0625 14.2842 98.4082 14.7725C97.7539 15.2607 97.4268 15.8516 97.4268 16.5449H94.7021C94.7021 15.7539 94.9805 14.9922 95.5371 14.2598C96.1035 13.5176 96.8652 12.9316 97.8223 12.502C98.7891 12.0723 99.8486 11.8574 101.001 11.8574C102.827 11.8574 104.258 12.3164 105.293 13.2344C106.328 14.1426 106.865 15.3975 106.904 16.999V24.2939C106.904 25.749 107.09 26.9062 107.461 27.7656V28H104.619ZM100.122 25.9346C100.972 25.9346 101.777 25.7148 102.539 25.2754C103.301 24.8359 103.853 24.2646 104.194 23.5615V20.3096H102.07C98.75 20.3096 97.0898 21.2812 97.0898 23.2246C97.0898 24.0742 97.373 24.7383 97.9395 25.2168C98.5059 25.6953 99.2334 25.9346 100.122 25.9346Z" fill="#338391"/>
<path d="M10.0547 37.7441C9.9668 38.4961 9.68848 39.0771 9.21973 39.4873C8.75423 39.8942 8.13411 40.0977 7.35938 40.0977C6.51953 40.0977 5.8457 39.7965 5.33789 39.1943C4.83333 38.5921 4.58105 37.7865 4.58105 36.7773V36.0938C4.58105 35.4329 4.69824 34.8519 4.93262 34.3506C5.17025 33.8493 5.50553 33.4652 5.93848 33.1982C6.37142 32.9281 6.87272 32.793 7.44238 32.793C8.19759 32.793 8.80306 33.0046 9.25879 33.4277C9.71452 33.8477 9.97982 34.4303 10.0547 35.1758H9.1123C9.03092 34.6094 8.85352 34.1992 8.58008 33.9453C8.3099 33.6914 7.93066 33.5645 7.44238 33.5645C6.84342 33.5645 6.37305 33.7858 6.03125 34.2285C5.69271 34.6712 5.52344 35.3011 5.52344 36.1182V36.8066C5.52344 37.5781 5.68457 38.1917 6.00684 38.6475C6.3291 39.1032 6.77995 39.3311 7.35938 39.3311C7.88021 39.3311 8.27897 39.2139 8.55566 38.9795C8.83561 38.7419 9.02116 38.3301 9.1123 37.7441H10.0547ZM17.6076 36.6748C17.6076 37.3714 17.4904 37.9801 17.2561 38.501C17.0217 39.0186 16.6896 39.4141 16.26 39.6875C15.8303 39.9609 15.329 40.0977 14.7561 40.0977C14.1962 40.0977 13.6997 39.9609 13.2668 39.6875C12.8339 39.4108 12.4969 39.0186 12.2561 38.5107C12.0184 37.9997 11.8964 37.4089 11.8898 36.7383V36.2256C11.8898 35.542 12.0087 34.9382 12.2463 34.4141C12.4839 33.89 12.8192 33.4896 13.2521 33.2129C13.6883 32.9329 14.1864 32.793 14.7463 32.793C15.316 32.793 15.8173 32.9313 16.2502 33.208C16.6864 33.4814 17.0217 33.8802 17.2561 34.4043C17.4904 34.9251 17.6076 35.5322 17.6076 36.2256V36.6748ZM16.675 36.2158C16.675 35.3727 16.5057 34.7266 16.1672 34.2773C15.8286 33.8249 15.355 33.5986 14.7463 33.5986C14.1538 33.5986 13.6867 33.8249 13.3449 34.2773C13.0064 34.7266 12.8322 35.3516 12.8225 36.1523V36.6748C12.8225 37.4919 12.9934 38.1348 13.3352 38.6035C13.6802 39.069 14.1538 39.3018 14.7561 39.3018C15.3615 39.3018 15.8303 39.082 16.1623 38.6426C16.4943 38.1999 16.6652 37.5667 16.675 36.7432V36.2158ZM23.4613 34.7998C23.4613 34.4222 23.323 34.1227 23.0463 33.9014C22.7729 33.6768 22.3871 33.5645 21.8891 33.5645C21.4724 33.5645 21.1225 33.68 20.8393 33.9111C20.5593 34.139 20.4193 34.4222 20.4193 34.7607H19.4818C19.4818 34.3831 19.5844 34.0446 19.7895 33.7451C19.9978 33.4456 20.2875 33.2129 20.6586 33.0469C21.0297 32.8776 21.4398 32.793 21.8891 32.793C22.6833 32.793 23.3002 32.972 23.7396 33.3301C24.1791 33.6849 24.3988 34.1797 24.3988 34.8145C24.3988 35.1432 24.2979 35.4427 24.0961 35.7129C23.8943 35.9831 23.6127 36.1963 23.2514 36.3525C24.088 36.6325 24.5063 37.1875 24.5063 38.0176C24.5063 38.6556 24.2686 39.1618 23.7934 39.5361C23.3181 39.9105 22.6833 40.0977 21.8891 40.0977C21.4171 40.0977 20.9874 40.0146 20.6 39.8486C20.2159 39.6794 19.9164 39.4401 19.7016 39.1309C19.4867 38.8216 19.3793 38.4538 19.3793 38.0273H20.3168C20.3168 38.4017 20.4649 38.7142 20.7611 38.9648C21.0574 39.2122 21.4333 39.3359 21.8891 39.3359C22.4001 39.3359 22.807 39.2171 23.1098 38.9795C23.4158 38.7419 23.5688 38.4277 23.5688 38.0371C23.5688 37.2038 23.0528 36.779 22.0209 36.7627H21.142V35.9912H22.016C22.4913 35.9814 22.851 35.874 23.0951 35.6689C23.3393 35.4639 23.4613 35.1742 23.4613 34.7998ZM32.9479 41.7432H32.0152V40H26.9127V41.748H25.9752L25.9703 39.2334H26.5514C26.8574 38.8883 27.0999 38.4261 27.2789 37.8467C27.4612 37.264 27.5751 36.626 27.6207 35.9326L27.777 32.8906H32.0299V39.2334H32.9576L32.9479 41.7432ZM27.6207 39.2334H31.0875V33.6621H28.6803L28.5777 35.752C28.5354 36.569 28.4264 37.2656 28.2506 37.8418C28.0781 38.418 27.8681 38.8818 27.6207 39.2334ZM38.8748 38.1445H35.8963L35.2273 40H34.2605L36.9754 32.8906H37.7957L40.5154 40H39.5535L38.8748 38.1445ZM36.1795 37.373H38.5965L37.3855 34.0479L36.1795 37.373ZM47.7363 40H46.7939V36.7139H43.21V40H42.2725V32.8906H43.21V35.9473H46.7939V32.8906H47.7363V40ZM54.6838 32.8906H55.6213V40H54.6838V34.5215L51.1828 40H50.2404V32.8906H51.1828V38.3691L54.6838 32.8906ZM62.1488 36.7139H59.0678V39.2334H62.6469V40H58.1303V32.8906H62.598V33.6621H59.0678V35.9473H62.1488V36.7139ZM73.1238 37.7441C73.0359 38.4961 72.7576 39.0771 72.2889 39.4873C71.8234 39.8942 71.2033 40.0977 70.4285 40.0977C69.5887 40.0977 68.9148 39.7965 68.407 39.1943C67.9025 38.5921 67.6502 37.7865 67.6502 36.7773V36.0938C67.6502 35.4329 67.7674 34.8519 68.0018 34.3506C68.2394 33.8493 68.5747 33.4652 69.0076 33.1982C69.4406 32.9281 69.9419 32.793 70.5115 32.793C71.2667 32.793 71.8722 33.0046 72.3279 33.4277C72.7837 33.8477 73.049 34.4303 73.1238 35.1758H72.1814C72.1001 34.6094 71.9227 34.1992 71.6492 33.9453C71.379 33.6914 70.9998 33.5645 70.5115 33.5645C69.9126 33.5645 69.4422 33.7858 69.1004 34.2285C68.7618 34.6712 68.5926 35.3011 68.5926 36.1182V36.8066C68.5926 37.5781 68.7537 38.1917 69.076 38.6475C69.3982 39.1032 69.8491 39.3311 70.4285 39.3311C70.9493 39.3311 71.3481 39.2139 71.6248 38.9795C71.9048 38.7419 72.0903 38.3301 72.1814 37.7441H73.1238ZM79.1338 38.1445H76.1553L75.4863 40H74.5195L77.2344 32.8906H78.0547L80.7744 40H79.8125L79.1338 38.1445ZM76.4385 37.373H78.8555L77.6445 34.0479L76.4385 37.373ZM87.0139 32.8906H87.9514V40H87.0139V34.5215L83.5129 40H82.5705V32.8906H83.5129V38.3691L87.0139 32.8906ZM86.7502 31.123C86.7502 31.5169 86.6151 31.8343 86.3449 32.0752C86.078 32.3128 85.7264 32.4316 85.2902 32.4316C84.854 32.4316 84.5008 32.3112 84.2307 32.0703C83.9605 31.8294 83.8254 31.5137 83.8254 31.123H84.5627C84.5627 31.3509 84.6245 31.5299 84.7482 31.6602C84.8719 31.7871 85.0526 31.8506 85.2902 31.8506C85.5181 31.8506 85.6955 31.7871 85.8225 31.6602C85.9527 31.5332 86.0178 31.3542 86.0178 31.123H86.7502ZM95.3725 33.6621H93.0873V40H92.1547V33.6621H89.8744V32.8906H95.3725V33.6621ZM102.559 36.6748C102.559 37.3714 102.442 37.9801 102.208 38.501C101.973 39.0186 101.641 39.4141 101.212 39.6875C100.782 39.9609 100.281 40.0977 99.7076 40.0977C99.1477 40.0977 98.6513 39.9609 98.2184 39.6875C97.7854 39.4108 97.4485 39.0186 97.2076 38.5107C96.97 37.9997 96.8479 37.4089 96.8414 36.7383V36.2256C96.8414 35.542 96.9602 34.9382 97.1979 34.4141C97.4355 33.89 97.7708 33.4896 98.2037 33.2129C98.6399 32.9329 99.138 32.793 99.6979 32.793C100.268 32.793 100.769 32.9313 101.202 33.208C101.638 33.4814 101.973 33.8802 102.208 34.4043C102.442 34.9251 102.559 35.5322 102.559 36.2256V36.6748ZM101.627 36.2158C101.627 35.3727 101.457 34.7266 101.119 34.2773C100.78 33.8249 100.307 33.5986 99.6979 33.5986C99.1054 33.5986 98.6383 33.8249 98.2965 34.2773C97.9579 34.7266 97.7838 35.3516 97.774 36.1523V36.6748C97.774 37.4919 97.9449 38.1348 98.2867 38.6035C98.6318 39.069 99.1054 39.3018 99.7076 39.3018C100.313 39.3018 100.782 39.082 101.114 38.6426C101.446 38.1999 101.617 37.5667 101.627 36.7432V36.2158ZM104.765 40V32.8906H107.09C107.861 32.8906 108.441 33.0501 108.828 33.3691C109.219 33.6882 109.414 34.1602 109.414 34.7852C109.414 35.1172 109.319 35.4118 109.131 35.6689C108.942 35.9229 108.685 36.1198 108.359 36.2598C108.743 36.3672 109.046 36.5723 109.267 36.875C109.492 37.1745 109.604 37.5326 109.604 37.9492C109.604 38.5872 109.398 39.0885 108.984 39.4531C108.571 39.8177 107.986 40 107.231 40H104.765ZM105.703 36.6748V39.2334H107.251C107.687 39.2334 108.03 39.1211 108.281 38.8965C108.535 38.6686 108.662 38.3561 108.662 37.959C108.662 37.1029 108.196 36.6748 107.265 36.6748H105.703ZM105.703 35.9229H107.119C107.529 35.9229 107.856 35.8203 108.1 35.6152C108.348 35.4102 108.471 35.1318 108.471 34.7803C108.471 34.3896 108.358 34.1064 108.13 33.9307C107.902 33.7516 107.555 33.6621 107.09 33.6621H105.703V35.9229Z" fill="black"/>
</svg>
