<svg width="20" height="20" viewBox="0 0 20 20" fill="none" xmlns="http://www.w3.org/2000/svg">
<path fill-rule="evenodd" clip-rule="evenodd" d="M8 14C4.692 14 2 11.309 2 8C2 4.692 4.692 2 8 2C11.308 2 14 4.692 14 8C14 11.309 11.308 14 8 14ZM8 0C3.582 0 0 3.582 0 8C0 12.418 3.582 16 8 16C9.74378 16 11.3573 15.442 12.6718 14.4948C13.2162 14.1024 13.7093 13.6433 14.1392 13.1295C15.3008 11.7407 16 9.95196 16 8C16 3.582 12.418 0 8 0Z" fill="#77CAD9"/>
<path d="M18.586 20L20 18.586L14.1392 13.1295C13.7093 13.6433 13.2162 14.1024 12.6718 14.4948L18.586 20Z" fill="#77CAD9"/>
</svg>
