<svg width="30" height="31" viewBox="0 0 30 31" fill="none" xmlns="http://www.w3.org/2000/svg">
<path fill-rule="evenodd" clip-rule="evenodd" d="M12.346 22.7992C18.761 22.7992 22.2698 17.4124 22.2698 12.7415C22.2698 12.5881 22.2698 12.4356 22.2596 12.284C22.9421 11.7844 23.5312 11.1641 23.9995 10.4543C23.3637 10.7403 22.688 10.9281 21.9969 11.0108C22.7245 10.5688 23.2694 9.87448 23.5303 9.05522C22.8452 9.46701 22.0964 9.75732 21.3152 9.91325C19.9943 8.49009 17.7852 8.42118 16.3801 9.75991C15.4749 10.6231 15.0898 11.9101 15.3712 13.1378C12.567 12.9947 9.95411 11.6526 8.18271 9.44461C7.25706 11.0599 7.73051 13.1257 9.26306 14.1629C8.70801 14.1465 8.16486 13.9949 7.67951 13.721V13.7658C7.68036 15.4482 8.85081 16.8972 10.4777 17.2306C9.96431 17.3728 9.42541 17.3934 8.90351 17.2909C9.35996 18.7313 10.6698 19.7177 12.1616 19.7461C10.9265 20.7299 9.40076 21.264 7.82996 21.2623C7.55286 21.2615 7.27576 21.2451 6.99951 21.2115C8.59496 22.2487 10.4505 22.7992 12.346 22.7966" fill="#338391" fill-opacity="0.7"/>
<circle cx="15" cy="15.7988" r="14.5" stroke="#338391" stroke-opacity="0.7"/>
</svg>
