<svg width="30" height="30" viewBox="0 0 30 30" fill="none" xmlns="http://www.w3.org/2000/svg">
<path d="M18.2084 8.00024H11.7877C9.69806 8.00024 7.99805 9.70025 7.99805 11.7899V18.2107C7.99805 20.3002 9.69806 22.0002 11.7877 22.0002H18.2085C20.298 22.0002 21.998 20.3002 21.998 18.2107V11.7899C21.998 9.70025 20.298 8.00024 18.2084 8.00024V8.00024ZM14.998 18.8282C12.8872 18.8282 11.17 17.111 11.17 15.0002C11.17 12.8894 12.8872 11.1722 14.998 11.1722C17.1088 11.1722 18.826 12.8894 18.826 15.0002C18.826 17.111 17.1088 18.8282 14.998 18.8282V18.8282ZM18.9176 12.075C18.2938 12.075 17.7865 11.5676 17.7865 10.9439C17.7865 10.3201 18.2938 9.81262 18.9176 9.81262C19.5414 9.81262 20.0488 10.3201 20.0488 10.9439C20.0488 11.5676 19.5414 12.075 18.9176 12.075Z" fill="#338391"/>
<path d="M14.9995 11.9927C13.3413 11.9927 11.9922 13.3417 11.9922 14.9999C11.9922 16.6581 13.3413 18.0072 14.9995 18.0072C16.6577 18.0072 18.0067 16.6581 18.0067 14.9999C18.0067 13.3417 16.6577 11.9927 14.9995 11.9927V11.9927Z" fill="#338391"/>
<path d="M18.9195 10.6323C18.7484 10.6323 18.6091 10.7716 18.6091 10.9427C18.6091 11.1138 18.7484 11.2531 18.9195 11.2531C19.0907 11.2531 19.23 11.1139 19.23 10.9427C19.23 10.7715 19.0907 10.6323 18.9195 10.6323Z" fill="#338391"/>
<circle cx="15" cy="15" r="14.5" stroke="#338391"/>
</svg>
