<svg width="31" height="66" viewBox="0 0 31 66" fill="none" xmlns="http://www.w3.org/2000/svg">
<path d="M30.741 1.67152C31.1119 1.26228 31.0808 0.629883 30.6715 0.259013C30.2623 -0.111857 29.6299 -0.0807552 29.259 0.328481L30.741 1.67152ZM28.7532 65.6651C29.1206 66.0775 29.7527 66.1141 30.1651 65.7468C30.5775 65.3794 30.6141 64.7473 30.2468 64.3349L28.7532 65.6651ZM1.00603 32.9933L1.74702 33.6649L1.00603 32.9933ZM1.00598 33.0067L1.75274 32.3416L1.00598 33.0067ZM29.259 0.328481L0.265046 32.3218L1.74702 33.6649L30.741 1.67152L29.259 0.328481ZM0.25921 33.6718L28.7532 65.6651L30.2468 64.3349L1.75274 32.3416L0.25921 33.6718ZM0.265046 32.3218C-0.0815642 32.7043 -0.0839826 33.2865 0.25921 33.6718L1.75274 32.3416C2.08914 32.7193 2.08677 33.29 1.74702 33.6649L0.265046 32.3218Z" fill="white"/>
</svg>
