<svg width="165" height="179" viewBox="0 0 165 179" fill="none" xmlns="http://www.w3.org/2000/svg">
<path d="M79.2714 178.661C96.9146 178.661 111.268 164.329 111.268 146.713C111.268 129.097 96.9146 114.766 79.2714 114.766C61.6294 114.766 47.2751 129.098 47.2751 146.713C47.2751 164.329 61.6298 178.661 79.2714 178.661Z" fill="#C4C4C4"/>
<path opacity="0.19" d="M54.1825 147.053C54.1825 130.561 66.7646 116.948 82.8457 115.278C81.7503 115.165 80.638 115.105 79.5126 115.105C61.8706 115.105 47.5164 129.437 47.5164 147.052C47.5164 164.668 61.8706 179 79.5126 179C80.6384 179 81.7503 178.94 82.8457 178.826C66.7642 177.158 54.1825 163.545 54.1825 147.053Z" fill="#202121"/>
<path d="M161.5 1.59893C160.71 0.611701 159.214 0 157.59 0H7.41064C5.78735 0 4.29023 0.611364 3.49921 1.59825C2.70916 2.58345 2.74896 3.79066 3.60258 4.75022L16.0473 18.7421C16.8044 19.593 18.103 20.1281 19.5254 20.2017C18.9843 21.1177 19.0944 22.1667 19.8549 23.022L32.3001 37.0138C33.1164 37.9309 34.5567 38.4893 36.1082 38.4893H128.843C130.392 38.4893 131.832 37.9319 132.649 37.0152L145.115 23.0237C145.853 22.1953 145.982 21.1838 145.496 20.2887C146.858 20.1915 148.106 19.6676 148.848 18.8352L161.395 4.75224C162.25 3.79133 162.291 2.58548 161.5 1.59893Z" fill="#A5A5A5"/>
<path opacity="0.19" d="M21.654 0H7.39023C5.77434 0 4.28405 0.611364 3.49663 1.59825C2.71019 2.58345 2.7498 3.79066 3.59953 4.75022L15.9875 18.7421C16.7411 19.593 18.0339 20.1281 19.4497 20.2017C18.9111 21.1177 19.0208 22.1667 19.7778 23.022L32.1663 37.0138C32.9788 37.9309 34.4126 38.4893 35.957 38.4893H55.7331L21.654 0Z" fill="#202121"/>
<path d="M13.2 17.0241L15.4767 19.2773C16.2403 20.0328 17.5503 20.5078 18.9851 20.5731C18.6356 21.0949 18.5587 21.6641 18.7482 22.2054H146.244C146.424 21.6907 146.362 21.1501 146.054 20.6498C147.428 20.5635 148.688 20.0984 149.436 19.3594L151.799 17.0241C151.799 17.0241 13.2 17.0241 13.2 17.0241Z" fill="#485D6D"/>
<path d="M161.736 0.23544C159.804 -0.149587 157.743 0.408839 156.686 1.60625L72.6644 96.6602C71.8052 97.6316 71.7653 98.8519 72.5592 99.8503C73.3517 100.848 74.8533 101.467 76.484 101.467H96.1655H97.0042H128.612L164.214 59.4675L165 58.5394V26.5924V23.2668V3.26446C164.999 1.85645 163.666 0.620468 161.736 0.23544Z" fill="#A5A5A5"/>
<path d="M82.6205 85.8229L8.31475 1.62003C7.25927 0.423302 5.19653 -0.137855 3.26482 0.247514C1.33311 0.632541 0.000488281 1.86886 0.000488281 3.27619V24.083V27.0014V58.544L34.7572 99.5453L36.3899 101.47H67.2676H68.1175H69.2163C70.7706 101.47 72.2162 100.906 73.0354 99.9791L82.619 89.1386C83.5157 88.1221 83.5167 86.8398 82.6205 85.8229Z" fill="#A5A5A5"/>
<path opacity="0.19" d="M67.362 101.404H68.2232H69.3367C70.9117 101.404 72.3766 100.844 73.2067 99.9222L82.918 89.1447C83.8267 88.1348 83.8277 86.8595 82.9195 85.8486L75.6064 77.7188L54.2668 101.404H67.362Z" fill="#202121"/>
<path d="M164.999 30.237V26.5936V23.2679V19.2982C164.649 19.4992 164.339 19.7416 164.087 20.0269L92.4011 101.469H96.1657H97.0044H102.301L164.999 30.237Z" fill="#485D6D"/>
<path d="M0 21.2829V24.0822V27.0006V32.5296L60.681 101.469H67.2671H68.117H69.2159C69.645 101.469 70.0643 101.422 70.4662 101.34L0 21.2829Z" fill="#485D6D"/>
<path d="M115.371 99.5785H49.6287C43.6938 99.5785 38.8665 103.179 38.8665 107.605V109.124C38.8665 113.55 43.6938 117.151 49.6287 117.151H115.37C121.305 117.151 126.133 113.55 126.133 109.124V107.605C126.133 103.179 121.306 99.5785 115.371 99.5785Z" fill="#485D6D"/>
<path d="M73.5664 153.728H71.3867V139.278L67.0156 140.884V138.915L73.2266 136.583H73.5664V153.728ZM91.0977 153.728H79.918V152.169L85.8242 145.607C86.6992 144.614 87.3008 143.81 87.6289 143.193C87.9648 142.568 88.1328 141.923 88.1328 141.259C88.1328 140.368 87.8633 139.638 87.3242 139.068C86.7852 138.497 86.0664 138.212 85.168 138.212C84.0898 138.212 83.25 138.521 82.6484 139.138C82.0547 139.747 81.7578 140.599 81.7578 141.693H79.5898C79.5898 140.122 80.0938 138.853 81.1016 137.884C82.1172 136.915 83.4727 136.431 85.168 136.431C86.7539 136.431 88.0078 136.849 88.9297 137.685C89.8516 138.513 90.3125 139.618 90.3125 141.001C90.3125 142.681 89.2422 144.681 87.1016 147.001L82.5312 151.958H91.0977V153.728Z" fill="white"/>
</svg>
