<svg width="30" height="30" viewBox="0 0 30 30" fill="none" xmlns="http://www.w3.org/2000/svg">
<path fill-rule="evenodd" clip-rule="evenodd" d="M12.346 22.0002C18.761 22.0002 22.2698 16.6134 22.2698 11.9425C22.2698 11.7892 22.2698 11.6367 22.2596 11.4851C22.9421 10.9854 23.5312 10.3652 23.9995 9.65531C23.3637 9.94132 22.688 10.1291 21.9969 10.2118C22.7245 9.76988 23.2694 9.07553 23.5303 8.25627C22.8452 8.66806 22.0964 8.95837 21.3152 9.1143C19.9943 7.69114 17.7852 7.62223 16.3801 8.96096C15.4749 9.82416 15.0898 11.1112 15.3712 12.3388C12.567 12.1958 9.95411 10.8536 8.18271 8.64566C7.25706 10.2609 7.73051 12.3267 9.26306 13.364C8.70801 13.3476 8.16486 13.196 7.67951 12.922V12.9668C7.68036 14.6493 8.85081 16.0983 10.4777 16.4317C9.96431 16.5738 9.42541 16.5945 8.90351 16.492C9.35996 17.9324 10.6698 18.9187 12.1616 18.9472C10.9265 19.931 9.40076 20.4651 7.82996 20.4634C7.55286 20.4625 7.27576 20.4461 6.99951 20.4125C8.59496 21.4498 10.4505 22.0002 12.346 21.9977" fill="#338391"/>
<circle cx="15" cy="15" r="14.5" stroke="#338391"/>
</svg>
