<svg width="30" height="30" viewBox="0 0 30 30" fill="none" xmlns="http://www.w3.org/2000/svg">
<path d="M14.7862 20.9534H15.9813C15.9813 20.9534 16.3426 20.9149 16.5264 20.7233C16.6964 20.5473 16.6901 20.2172 16.6901 20.2172C16.6901 20.2172 16.6664 18.6711 17.4114 18.4434C18.1452 18.2192 19.0878 19.9376 20.0866 20.5991C20.8417 21.0992 21.4155 20.9896 21.4155 20.9896L24.0869 20.9534C24.0869 20.9534 25.4845 20.8703 24.822 19.8111C24.7682 19.7243 24.4357 19.0278 22.8356 17.5963C21.1605 16.0972 21.3855 16.3406 23.4031 13.7486C24.632 12.1701 25.1233 11.2061 24.9695 10.794C24.8232 10.4011 23.9194 10.5048 23.9194 10.5048L20.9142 10.5216C20.9142 10.5216 20.6917 10.4927 20.5254 10.5879C20.3642 10.6819 20.2604 10.8988 20.2604 10.8988C20.2604 10.8988 19.7841 12.1207 19.1491 13.1594C17.8102 15.3513 17.2739 15.467 17.0552 15.3308C16.5464 15.0139 16.6739 14.0559 16.6739 13.3763C16.6739 11.2519 17.0077 10.3662 16.0226 10.1372C15.6951 10.0613 15.455 10.0107 14.6187 10.0023C13.5462 9.99142 12.6373 10.0059 12.1235 10.2481C11.781 10.4096 11.5173 10.7699 11.6785 10.7903C11.8773 10.8157 12.3273 10.9072 12.5661 11.2205C12.8749 11.6242 12.8636 12.5328 12.8636 12.5328C12.8636 12.5328 13.0411 15.0332 12.4498 15.3441C12.0435 15.5574 11.4873 15.1224 10.2934 13.1329C9.68212 12.1147 9.21958 10.988 9.21958 10.988C9.21958 10.988 9.13083 10.7783 8.97207 10.6662C8.77955 10.5301 8.50953 10.4867 8.50953 10.4867L5.65182 10.5036C5.65182 10.5036 5.22304 10.5156 5.06553 10.6952C4.92552 10.8554 5.05428 11.1856 5.05428 11.1856C5.05428 11.1856 7.29194 16.231 9.82463 18.7748C12.1486 21.1065 14.7862 20.9534 14.7862 20.9534Z" fill="#338391"/>
<circle cx="15" cy="15" r="14.5" stroke="#338391"/>
</svg>
