<svg width="30" height="31" viewBox="0 0 30 31" fill="none" xmlns="http://www.w3.org/2000/svg">
<path d="M14.7862 21.7524H15.9813C15.9813 21.7524 16.3426 21.7138 16.5264 21.5222C16.6964 21.3463 16.6901 21.0161 16.6901 21.0161C16.6901 21.0161 16.6664 19.4701 17.4114 19.2423C18.1452 19.0182 19.0878 20.7365 20.0866 21.3981C20.8417 21.8982 21.4155 21.7885 21.4155 21.7885L24.0869 21.7524C24.0869 21.7524 25.4845 21.6692 24.822 20.61C24.7682 20.5233 24.4357 19.8268 22.8356 18.3952C21.1605 16.8962 21.3855 17.1396 23.4031 14.5476C24.632 12.969 25.1233 12.005 24.9695 11.5929C24.8232 11.2001 23.9194 11.3037 23.9194 11.3037L20.9142 11.3206C20.9142 11.3206 20.6917 11.2917 20.5254 11.3869C20.3642 11.4808 20.2604 11.6977 20.2604 11.6977C20.2604 11.6977 19.7841 12.9196 19.1491 13.9583C17.8102 16.1503 17.2739 16.2659 17.0552 16.1298C16.5464 15.8129 16.6739 14.8549 16.6739 14.1753C16.6739 12.0508 17.0077 11.1651 16.0226 10.9362C15.6951 10.8603 15.455 10.8097 14.6187 10.8012C13.5462 10.7904 12.6373 10.8048 12.1235 11.047C11.781 11.2085 11.5173 11.5688 11.6785 11.5893C11.8773 11.6146 12.3273 11.7062 12.5661 12.0195C12.8749 12.4232 12.8636 13.3317 12.8636 13.3317C12.8636 13.3317 13.0411 15.8321 12.4498 16.143C12.0435 16.3563 11.4873 15.9213 10.2934 13.9318C9.68212 12.9136 9.21958 11.7869 9.21958 11.7869C9.21958 11.7869 9.13083 11.5772 8.97207 11.4652C8.77955 11.329 8.50953 11.2856 8.50953 11.2856L5.65182 11.3025C5.65182 11.3025 5.22304 11.3146 5.06553 11.4941C4.92552 11.6544 5.05428 11.9845 5.05428 11.9845C5.05428 11.9845 7.29194 17.0299 9.82463 19.5737C12.1486 21.9054 14.7862 21.7524 14.7862 21.7524Z" fill="#338391" fill-opacity="0.7"/>
<circle cx="15" cy="15.7988" r="14.5" stroke="#338391" stroke-opacity="0.7"/>
</svg>
