<svg width="30" height="31" viewBox="0 0 30 31" fill="none" xmlns="http://www.w3.org/2000/svg">
<path d="M18.2084 8.79919H11.7877C9.69806 8.79919 7.99805 10.4992 7.99805 12.5889V19.0096C7.99805 21.0992 9.69806 22.7992 11.7877 22.7992H18.2085C20.298 22.7992 21.998 21.0992 21.998 19.0096V12.5889C21.998 10.4992 20.298 8.79919 18.2084 8.79919V8.79919ZM14.998 19.6272C12.8872 19.6272 11.17 17.91 11.17 15.7992C11.17 13.6884 12.8872 11.9712 14.998 11.9712C17.1088 11.9712 18.826 13.6884 18.826 15.7992C18.826 17.91 17.1088 19.6272 14.998 19.6272ZM18.9176 12.8739C18.2938 12.8739 17.7865 12.3666 17.7865 11.7428C17.7865 11.119 18.2938 10.6116 18.9176 10.6116C19.5414 10.6116 20.0488 11.119 20.0488 11.7428C20.0488 12.3666 19.5414 12.8739 18.9176 12.8739Z" fill="#77CAD9" fill-opacity="0.7"/>
<path d="M14.9995 12.7915C13.3413 12.7915 11.9922 14.1405 11.9922 15.7988C11.9922 17.4569 13.3413 18.806 14.9995 18.806C16.6577 18.806 18.0067 17.4569 18.0067 15.7988C18.0067 14.1405 16.6577 12.7915 14.9995 12.7915Z" fill="#77CAD9" fill-opacity="0.7"/>
<path d="M18.9195 11.4313C18.7484 11.4313 18.6091 11.5706 18.6091 11.7417C18.6091 11.9128 18.7484 12.0521 18.9195 12.0521C19.0907 12.0521 19.23 11.9129 19.23 11.7417C19.23 11.5704 19.0907 11.4313 18.9195 11.4313Z" fill="#77CAD9" fill-opacity="0.7"/>
<circle cx="15" cy="15.7988" r="14.5" stroke="#77CAD9" stroke-opacity="0.7"/>
</svg>
