<svg width="31" height="66" viewBox="0 0 31 66" fill="none" xmlns="http://www.w3.org/2000/svg">
<path d="M0.259012 1.67152C-0.111856 1.26228 -0.0807552 0.629883 0.32848 0.259013C0.737717 -0.111857 1.37012 -0.0807552 1.74099 0.328481L0.259012 1.67152ZM2.24677 65.6651C1.87945 66.0775 1.24734 66.1141 0.834911 65.7468C0.422485 65.3794 0.385918 64.7473 0.753235 64.3349L2.24677 65.6651ZM29.994 32.9933L29.253 33.6649L29.994 32.9933ZM29.994 33.0067L29.2473 32.3416L29.994 33.0067ZM1.74099 0.328481L30.735 32.3218L29.253 33.6649L0.259012 1.67152L1.74099 0.328481ZM30.7408 33.6718L2.24677 65.6651L0.753235 64.3349L29.2473 32.3416L30.7408 33.6718ZM30.735 32.3218C31.0816 32.7043 31.084 33.2865 30.7408 33.6718L29.2473 32.3416C28.9109 32.7193 28.9132 33.29 29.253 33.6649L30.735 32.3218Z" fill="white"/>
</svg>
